<svg xmlns="http://www.w3.org/2000/svg" xmlns:xlink="http://www.w3.org/1999/xlink" width="1920" zoomAndPan="magnify" viewBox="0 0 1440 809.999993" height="1080" preserveAspectRatio="xMidYMid meet" version="1.0"><defs><g/><clipPath id="b785feab25"><path d="M 97.089844 99.746094 L 1342.898438 99.746094 L 1342.898438 704.300781 L 97.089844 704.300781 Z M 97.089844 99.746094 " clip-rule="nonzero"/></clipPath><clipPath id="8c8152359d"><path d="M 603 655.222656 L 807 655.222656 L 807 709.972656 L 603 709.972656 Z M 603 655.222656 " clip-rule="nonzero"/></clipPath><clipPath id="57a90ac739"><path d="M 720.136719 628.828125 L 757.636719 628.828125 L 757.636719 666.328125 L 720.136719 666.328125 Z M 720.136719 628.828125 " clip-rule="nonzero"/></clipPath><clipPath id="68a7406547"><path d="M 191.042969 520.636719 L 366.542969 520.636719 L 366.542969 567.886719 L 191.042969 567.886719 Z M 191.042969 520.636719 " clip-rule="nonzero"/></clipPath><clipPath id="d8f02470ea"><path d="M 279 601.289062 L 316.5 601.289062 L 316.5 638.789062 L 279 638.789062 Z M 279 601.289062 " clip-rule="nonzero"/></clipPath><clipPath id="b24dd46237"><path d="M 222.105469 501.75 L 259.605469 501.75 L 259.605469 539.25 L 222.105469 539.25 Z M 222.105469 501.75 " clip-rule="nonzero"/></clipPath><clipPath id="dcf81a799b"><path d="M 1183.28125 457.726562 L 1321.28125 457.726562 L 1321.28125 495.226562 L 1183.28125 495.226562 Z M 1183.28125 457.726562 " clip-rule="nonzero"/></clipPath><clipPath id="551c2bae35"><path d="M 1263 438.558594 L 1300.5 438.558594 L 1300.5 476.058594 L 1263 476.058594 Z M 1263 438.558594 " clip-rule="nonzero"/></clipPath><clipPath id="1cab7b9a6f"><path d="M 1206.609375 514.761719 L 1244.109375 514.761719 L 1244.109375 552.261719 L 1206.609375 552.261719 Z M 1206.609375 514.761719 " clip-rule="nonzero"/></clipPath><clipPath id="f82566e907"><path d="M 1174.492188 492.394531 L 1327.492188 492.394531 L 1327.492188 533.644531 L 1174.492188 533.644531 Z M 1174.492188 492.394531 " clip-rule="nonzero"/></clipPath><clipPath id="5e7a29ba3e"><path d="M 143.355469 206.140625 L 338.355469 206.140625 L 338.355469 258.640625 L 143.355469 258.640625 Z M 143.355469 206.140625 " clip-rule="nonzero"/></clipPath><clipPath id="96d5fb0b8a"><path d="M 190.941406 563.949219 L 366.441406 563.949219 L 366.441406 611.199219 L 190.941406 611.199219 Z M 190.941406 563.949219 " clip-rule="nonzero"/></clipPath><clipPath id="a506d9c33a"><path d="M 1026.613281 189.515625 L 1166.113281 189.515625 L 1166.113281 227 L 1026.613281 227 Z M 1026.613281 189.515625 " clip-rule="nonzero"/></clipPath><clipPath id="8056884e24"><path d="M 1020.050781 222.050781 L 1169.300781 222.050781 L 1169.300781 262.550781 L 1020.050781 262.550781 Z M 1020.050781 222.050781 " clip-rule="nonzero"/></clipPath><clipPath id="677f995dfb"><path d="M 1059.253906 185.539062 L 1094.503906 185.539062 L 1094.503906 220.789062 L 1059.253906 220.789062 Z M 1059.253906 185.539062 " clip-rule="nonzero"/></clipPath><clipPath id="11a7cc2520"><path d="M 1142.304688 237.4375 L 1169.304688 237.4375 L 1169.304688 264.4375 L 1142.304688 264.4375 Z M 1142.304688 237.4375 " clip-rule="nonzero"/></clipPath><clipPath id="1a820c7880"><path d="M 915 512 L 963 512 L 963 574.21875 L 915 574.21875 Z M 915 512 " clip-rule="nonzero"/></clipPath><clipPath id="848a16196f"><path d="M 980 498.46875 L 1014 498.46875 L 1014 544 L 980 544 Z M 980 498.46875 " clip-rule="nonzero"/></clipPath><clipPath id="8b2dfba20f"><path d="M 1006.40625 472 L 1030 472 L 1030 503.59375 L 1006.40625 503.59375 Z M 1006.40625 472 " clip-rule="nonzero"/></clipPath><clipPath id="347df6dc53"><path d="M 1039 466.09375 L 1055.90625 466.09375 L 1055.90625 489 L 1039 489 Z M 1039 466.09375 " clip-rule="nonzero"/></clipPath><clipPath id="21a67884e1"><path d="M 579 642 L 627 642 L 627 704.578125 L 579 704.578125 Z M 579 642 " clip-rule="nonzero"/></clipPath><clipPath id="e36f34bd01"><path d="M 644 628.828125 L 678 628.828125 L 678 674 L 644 674 Z M 644 628.828125 " clip-rule="nonzero"/></clipPath><clipPath id="0fc7f8a506"><path d="M 138.988281 158.007812 L 342.988281 158.007812 L 342.988281 212.757812 L 138.988281 212.757812 Z M 138.988281 158.007812 " clip-rule="nonzero"/></clipPath><clipPath id="40d4ee264a"><path d="M 170.105469 228 L 195 228 L 195 260.78125 L 170.105469 260.78125 Z M 170.105469 228 " clip-rule="nonzero"/></clipPath><clipPath id="aa78aae183"><path d="M 204 221.03125 L 221.855469 221.03125 L 221.855469 245 L 204 245 Z M 204 221.03125 " clip-rule="nonzero"/></clipPath><clipPath id="e3c3f0251a"><path d="M 279 168 L 308 168 L 308 206.230469 L 279 206.230469 Z M 279 168 " clip-rule="nonzero"/></clipPath><clipPath id="7fd441b028"><path d="M 318 160.480469 L 339 160.480469 L 339 188 L 318 188 Z M 318 160.480469 " clip-rule="nonzero"/></clipPath><clipPath id="a941150715"><path d="M 378.101562 308 L 426 308 L 426 370.679688 L 378.101562 370.679688 Z M 378.101562 308 " clip-rule="nonzero"/></clipPath><clipPath id="0974e26ea0"><path d="M 443 295 L 477.101562 295 L 477.101562 340 L 443 340 Z M 443 295 " clip-rule="nonzero"/></clipPath><clipPath id="3f14350e44"><path d="M 469.507812 269 L 494 269 L 494 300 L 469.507812 300 Z M 469.507812 269 " clip-rule="nonzero"/></clipPath><clipPath id="aef2746f09"><path d="M 502 262.558594 L 519.007812 262.558594 L 519.007812 285 L 502 285 Z M 502 262.558594 " clip-rule="nonzero"/></clipPath></defs><rect x="-144" width="1728" fill="#ffffff" y="-80.999999" height="971.999992" fill-opacity="1"/><rect x="-144" width="1728" fill="#ffffff" y="-80.999999" height="971.999992" fill-opacity="1"/><g clip-path="url(#b785feab25)"><path fill="#f1f1f1" d="M 97.230469 99.816406 L 1342.980469 99.816406 L 1342.980469 704.316406 L 97.230469 704.316406 Z M 97.230469 99.816406 " fill-opacity="1" fill-rule="nonzero"/></g><g clip-path="url(#8c8152359d)"><path fill="#a697ed" d="M 797.398438 690.875 C 795.828125 690.875 794.34375 691.257812 793.039062 691.917969 C 791.554688 686.695312 786.734375 682.871094 781.015625 682.871094 C 779.996094 682.871094 779 682.996094 778.050781 683.222656 C 776.539062 675.777344 769.921875 670.171875 761.988281 670.171875 C 755.074219 670.171875 749.167969 674.429688 746.757812 680.457031 C 743.507812 676.859375 738.785156 674.589844 733.535156 674.589844 C 732.648438 674.589844 731.785156 674.65625 730.9375 674.777344 C 729.914062 663.832031 720.652344 655.265625 709.378906 655.265625 C 702.371094 655.265625 696.140625 658.578125 692.179688 663.710938 C 690.589844 663.246094 688.90625 662.992188 687.160156 662.992188 C 679.28125 662.992188 672.601562 668.089844 670.277344 675.15625 C 668.839844 674.785156 667.332031 674.585938 665.78125 674.585938 C 663.796875 674.585938 661.894531 674.910156 660.109375 675.511719 C 657.113281 672.230469 652.792969 670.171875 647.984375 670.171875 C 640.050781 670.171875 633.433594 675.777344 631.921875 683.222656 C 630.972656 682.996094 629.984375 682.871094 628.960938 682.871094 C 623.230469 682.871094 618.410156 686.695312 616.933594 691.917969 C 615.628906 691.25 614.144531 690.875 612.578125 690.875 C 607.285156 690.875 602.992188 695.144531 602.992188 700.402344 C 602.992188 705.660156 607.285156 709.929688 612.578125 709.929688 L 797.398438 709.929688 C 802.6875 709.929688 806.980469 705.660156 806.980469 700.402344 C 806.980469 695.144531 802.6875 690.875 797.398438 690.875 Z M 797.398438 690.875 " fill-opacity="1" fill-rule="nonzero"/></g><g clip-path="url(#57a90ac739)"><path fill="#c7bbff" d="M 738.886719 666.328125 C 738.886719 656.011719 730.453125 647.578125 720.136719 647.578125 C 730.453125 647.578125 738.886719 639.148438 738.886719 628.828125 C 738.886719 639.148438 747.316406 647.578125 757.636719 647.578125 C 747.316406 647.578125 738.886719 656.011719 738.886719 666.328125 Z M 738.886719 666.328125 " fill-opacity="1" fill-rule="nonzero"/></g><g clip-path="url(#68a7406547)"><path fill="#9a8ae4" d="M 358.28125 551.40625 C 356.933594 551.40625 355.65625 551.734375 354.53125 552.304688 C 353.257812 547.796875 349.109375 544.496094 344.1875 544.496094 C 343.3125 544.496094 342.457031 544.605469 341.636719 544.800781 C 340.339844 538.375 334.644531 533.535156 327.820312 533.535156 C 321.871094 533.535156 316.789062 537.210938 314.71875 542.414062 C 311.921875 539.304688 307.859375 537.351562 303.339844 537.351562 C 302.578125 537.351562 301.835938 537.40625 301.109375 537.511719 C 300.226562 528.0625 292.257812 520.667969 282.5625 520.667969 C 276.53125 520.667969 271.171875 523.527344 267.761719 527.960938 C 266.394531 527.558594 264.945312 527.339844 263.445312 527.339844 C 256.667969 527.339844 250.921875 531.738281 248.921875 537.839844 C 247.6875 537.515625 246.386719 537.34375 245.054688 537.34375 C 243.347656 537.34375 241.707031 537.625 240.175781 538.144531 C 237.59375 535.3125 233.878906 533.535156 229.742188 533.535156 C 222.917969 533.535156 217.222656 538.375 215.925781 544.800781 C 215.105469 544.605469 214.257812 544.496094 213.375 544.496094 C 208.449219 544.496094 204.300781 547.796875 203.03125 552.304688 C 201.90625 551.726562 200.632812 551.40625 199.28125 551.40625 C 194.730469 551.40625 191.039062 555.089844 191.039062 559.628906 C 191.039062 564.167969 194.730469 567.851562 199.28125 567.851562 L 358.28125 567.851562 C 362.832031 567.851562 366.527344 564.167969 366.527344 559.628906 C 366.527344 555.089844 362.832031 551.40625 358.28125 551.40625 Z M 358.28125 551.40625 " fill-opacity="1" fill-rule="nonzero"/></g><g clip-path="url(#d8f02470ea)"><path fill="#c7bbff" d="M 297.75 638.789062 C 297.75 628.472656 289.316406 620.039062 279 620.039062 C 289.316406 620.039062 297.75 611.605469 297.75 601.289062 C 297.75 611.605469 306.183594 620.039062 316.5 620.039062 C 306.183594 620.039062 297.75 628.472656 297.75 638.789062 Z M 297.75 638.789062 " fill-opacity="1" fill-rule="nonzero"/></g><g clip-path="url(#b24dd46237)"><path fill="#c7bbff" d="M 240.855469 539.25 C 240.855469 528.933594 232.421875 520.5 222.105469 520.5 C 232.421875 520.5 240.855469 512.066406 240.855469 501.75 C 240.855469 512.066406 249.285156 520.5 259.605469 520.5 C 249.285156 520.5 240.855469 528.933594 240.855469 539.25 Z M 240.855469 539.25 " fill-opacity="1" fill-rule="nonzero"/></g><g clip-path="url(#dcf81a799b)"><path fill="#a697ed" d="M 1314.785156 482.148438 C 1313.722656 482.148438 1312.71875 482.410156 1311.835938 482.859375 C 1310.832031 479.285156 1307.570312 476.664062 1303.703125 476.664062 C 1303.011719 476.664062 1302.339844 476.75 1301.695312 476.90625 C 1300.675781 471.804688 1296.199219 467.964844 1290.832031 467.964844 C 1286.15625 467.964844 1282.15625 470.882812 1280.53125 475.011719 C 1278.328125 472.542969 1275.136719 470.992188 1271.582031 470.992188 C 1270.984375 470.992188 1270.398438 471.039062 1269.828125 471.121094 C 1269.132812 463.621094 1262.867188 457.753906 1255.242188 457.753906 C 1250.503906 457.753906 1246.289062 460.023438 1243.605469 463.539062 C 1242.53125 463.21875 1241.394531 463.046875 1240.214844 463.046875 C 1234.882812 463.046875 1230.363281 466.539062 1228.789062 471.378906 C 1227.820312 471.125 1226.800781 470.988281 1225.75 470.988281 C 1224.410156 470.988281 1223.121094 471.210938 1221.914062 471.621094 C 1219.886719 469.375 1216.964844 467.964844 1213.710938 467.964844 C 1208.34375 467.964844 1203.867188 471.804688 1202.847656 476.90625 C 1202.203125 476.75 1201.535156 476.664062 1200.839844 476.664062 C 1196.96875 476.664062 1193.707031 479.285156 1192.707031 482.859375 C 1191.824219 482.402344 1190.820312 482.148438 1189.757812 482.148438 C 1186.179688 482.148438 1183.277344 485.070312 1183.277344 488.671875 C 1183.277344 492.277344 1186.179688 495.199219 1189.757812 495.199219 L 1314.785156 495.199219 C 1318.363281 495.199219 1321.265625 492.277344 1321.265625 488.671875 C 1321.265625 485.070312 1318.363281 482.148438 1314.785156 482.148438 Z M 1314.785156 482.148438 " fill-opacity="1" fill-rule="nonzero"/></g><g clip-path="url(#551c2bae35)"><path fill="#c7bbff" d="M 1281.75 476.058594 C 1281.75 465.742188 1273.316406 457.308594 1263 457.308594 C 1273.316406 457.308594 1281.75 448.875 1281.75 438.558594 C 1281.75 448.875 1290.183594 457.308594 1300.5 457.308594 C 1290.183594 457.308594 1281.75 465.742188 1281.75 476.058594 Z M 1281.75 476.058594 " fill-opacity="1" fill-rule="nonzero"/></g><g clip-path="url(#1cab7b9a6f)"><path fill="#c7bbff" d="M 1225.359375 552.261719 C 1225.359375 541.945312 1216.925781 533.511719 1206.609375 533.511719 C 1216.925781 533.511719 1225.359375 525.082031 1225.359375 514.761719 C 1225.359375 525.082031 1233.792969 533.511719 1244.109375 533.511719 C 1233.792969 533.511719 1225.359375 541.945312 1225.359375 552.261719 Z M 1225.359375 552.261719 " fill-opacity="1" fill-rule="nonzero"/></g><g clip-path="url(#f82566e907)"><path fill="#a697ed" d="M 1181.691406 506.78125 C 1182.871094 506.78125 1183.980469 506.492188 1184.960938 505.996094 C 1186.074219 509.929688 1189.691406 512.8125 1193.980469 512.8125 C 1194.746094 512.8125 1195.488281 512.71875 1196.203125 512.546875 C 1197.335938 518.15625 1202.300781 522.378906 1208.25 522.378906 C 1213.433594 522.378906 1217.867188 519.171875 1219.671875 514.628906 C 1222.109375 517.34375 1225.652344 519.050781 1229.589844 519.050781 C 1230.253906 519.050781 1230.902344 519 1231.535156 518.910156 C 1232.304688 527.15625 1239.25 533.613281 1247.707031 533.613281 C 1252.960938 533.613281 1257.632812 531.117188 1260.605469 527.246094 C 1261.800781 527.597656 1263.0625 527.789062 1264.367188 527.789062 C 1270.277344 527.789062 1275.289062 523.949219 1277.035156 518.625 C 1278.109375 518.90625 1279.242188 519.054688 1280.402344 519.054688 C 1281.890625 519.054688 1283.320312 518.808594 1284.660156 518.359375 C 1286.90625 520.828125 1290.144531 522.378906 1293.75 522.378906 C 1299.703125 522.378906 1304.667969 518.15625 1305.796875 512.546875 C 1306.511719 512.71875 1307.25 512.8125 1308.019531 512.8125 C 1312.316406 512.8125 1315.933594 509.929688 1317.039062 505.996094 C 1318.019531 506.5 1319.132812 506.78125 1320.308594 506.78125 C 1324.277344 506.78125 1327.496094 503.566406 1327.496094 499.601562 C 1327.496094 495.640625 1324.277344 492.425781 1320.308594 492.425781 L 1181.691406 492.425781 C 1177.722656 492.425781 1174.503906 495.640625 1174.503906 499.601562 C 1174.503906 503.566406 1177.722656 506.78125 1181.691406 506.78125 Z M 1181.691406 506.78125 " fill-opacity="1" fill-rule="nonzero"/></g><g clip-path="url(#5e7a29ba3e)"><path fill="#a697ed" d="M 152.535156 224.453125 C 154.035156 224.453125 155.453125 224.085938 156.703125 223.453125 C 158.121094 228.460938 162.730469 232.128906 168.195312 232.128906 C 169.171875 232.128906 170.121094 232.007812 171.03125 231.789062 C 172.472656 238.933594 178.800781 244.308594 186.382812 244.308594 C 192.992188 244.308594 198.640625 240.222656 200.941406 234.445312 C 204.050781 237.894531 208.5625 240.070312 213.582031 240.070312 C 214.429688 240.070312 215.253906 240.007812 216.0625 239.890625 C 217.042969 250.386719 225.894531 258.605469 236.671875 258.605469 C 243.371094 258.605469 249.324219 255.425781 253.113281 250.503906 C 254.632812 250.949219 256.242188 251.195312 257.910156 251.195312 C 265.441406 251.195312 271.824219 246.304688 274.050781 239.527344 C 275.421875 239.882812 276.863281 240.078125 278.34375 240.078125 C 280.242188 240.078125 282.0625 239.761719 283.769531 239.1875 C 286.632812 242.332031 290.761719 244.308594 295.355469 244.308594 C 302.941406 244.308594 309.269531 238.933594 310.710938 231.789062 C 311.621094 232.007812 312.5625 232.128906 313.542969 232.128906 C 319.019531 232.128906 323.625 228.460938 325.035156 223.453125 C 326.285156 224.09375 327.703125 224.453125 329.203125 224.453125 C 334.261719 224.453125 338.363281 220.359375 338.363281 215.316406 C 338.363281 210.269531 334.261719 206.179688 329.203125 206.179688 L 152.535156 206.179688 C 147.480469 206.179688 143.375 210.269531 143.375 215.316406 C 143.375 220.359375 147.480469 224.453125 152.535156 224.453125 Z M 152.535156 224.453125 " fill-opacity="1" fill-rule="nonzero"/></g><g clip-path="url(#96d5fb0b8a)"><path fill="#9a8ae4" d="M 199.203125 580.429688 C 200.554688 580.429688 201.828125 580.101562 202.953125 579.53125 C 204.230469 584.035156 208.378906 587.339844 213.300781 587.339844 C 214.175781 587.339844 215.03125 587.230469 215.847656 587.035156 C 217.148438 593.460938 222.839844 598.300781 229.667969 598.300781 C 235.613281 598.300781 240.695312 594.625 242.769531 589.421875 C 245.566406 592.527344 249.628906 594.484375 254.144531 594.484375 C 254.90625 594.484375 255.652344 594.429688 256.378906 594.324219 C 257.261719 603.773438 265.226562 611.164062 274.925781 611.164062 C 280.953125 611.164062 286.3125 608.304688 289.722656 603.875 C 291.089844 604.277344 292.539062 604.496094 294.039062 604.496094 C 300.816406 604.496094 306.5625 600.09375 308.566406 593.996094 C 309.800781 594.320312 311.097656 594.492188 312.429688 594.492188 C 314.140625 594.492188 315.777344 594.210938 317.3125 593.691406 C 319.890625 596.523438 323.605469 598.300781 327.742188 598.300781 C 334.566406 598.300781 340.261719 593.460938 341.558594 587.035156 C 342.378906 587.230469 343.226562 587.339844 344.109375 587.339844 C 349.039062 587.339844 353.183594 584.035156 354.453125 579.53125 C 355.578125 580.105469 356.855469 580.429688 358.203125 580.429688 C 362.757812 580.429688 366.449219 576.746094 366.449219 572.207031 C 366.449219 567.667969 362.757812 563.984375 358.203125 563.984375 L 199.203125 563.984375 C 194.652344 563.984375 190.960938 567.667969 190.960938 572.207031 C 190.960938 576.746094 194.652344 580.429688 199.203125 580.429688 Z M 199.203125 580.429688 " fill-opacity="1" fill-rule="nonzero"/></g><g clip-path="url(#a506d9c33a)"><path fill="#a697ed" d="M 1159.546875 213.933594 C 1158.472656 213.933594 1157.460938 214.195312 1156.566406 214.648438 C 1155.550781 211.074219 1152.253906 208.453125 1148.34375 208.453125 C 1147.644531 208.453125 1146.96875 208.539062 1146.316406 208.695312 C 1145.285156 203.59375 1140.757812 199.753906 1135.332031 199.753906 C 1130.605469 199.753906 1126.566406 202.671875 1124.917969 206.800781 C 1122.695312 204.332031 1119.464844 202.78125 1115.875 202.78125 C 1115.269531 202.78125 1114.679688 202.828125 1114.101562 202.910156 C 1113.398438 195.410156 1107.066406 189.542969 1099.359375 189.542969 C 1094.566406 189.542969 1090.304688 191.8125 1087.59375 195.328125 C 1086.507812 195.011719 1085.355469 194.835938 1084.164062 194.835938 C 1078.777344 194.835938 1074.210938 198.328125 1072.617188 203.167969 C 1071.636719 202.914062 1070.605469 202.777344 1069.546875 202.777344 C 1068.1875 202.777344 1066.886719 203 1065.664062 203.410156 C 1063.617188 201.164062 1060.664062 199.753906 1057.375 199.753906 C 1051.949219 199.753906 1047.421875 203.59375 1046.390625 208.695312 C 1045.742188 208.539062 1045.066406 208.453125 1044.363281 208.453125 C 1040.449219 208.453125 1037.152344 211.074219 1036.144531 214.648438 C 1035.25 214.191406 1034.234375 213.933594 1033.160156 213.933594 C 1029.542969 213.933594 1026.609375 216.859375 1026.609375 220.460938 C 1026.609375 224.0625 1029.542969 226.984375 1033.160156 226.984375 L 1159.546875 226.984375 C 1163.164062 226.984375 1166.097656 224.0625 1166.097656 220.460938 C 1166.097656 216.859375 1163.164062 213.933594 1159.546875 213.933594 Z M 1159.546875 213.933594 " fill-opacity="1" fill-rule="nonzero"/></g><g clip-path="url(#8056884e24)"><path fill="#a697ed" d="M 1027.074219 236.175781 C 1028.222656 236.175781 1029.308594 235.894531 1030.265625 235.40625 C 1031.347656 239.269531 1034.878906 242.097656 1039.0625 242.097656 C 1039.808594 242.097656 1040.535156 242.003906 1041.230469 241.835938 C 1042.335938 247.347656 1047.175781 251.492188 1052.980469 251.492188 C 1058.039062 251.492188 1062.363281 248.34375 1064.125 243.882812 C 1066.503906 246.546875 1069.957031 248.222656 1073.800781 248.222656 C 1074.445312 248.222656 1075.078125 248.175781 1075.699219 248.085938 C 1076.449219 256.183594 1083.222656 262.519531 1091.472656 262.519531 C 1096.597656 262.519531 1101.15625 260.070312 1104.054688 256.273438 C 1105.21875 256.617188 1106.449219 256.804688 1107.726562 256.804688 C 1113.492188 256.804688 1118.378906 253.03125 1120.082031 247.804688 C 1121.128906 248.082031 1122.234375 248.230469 1123.367188 248.230469 C 1124.820312 248.230469 1126.214844 247.988281 1127.519531 247.542969 C 1129.710938 249.96875 1132.871094 251.492188 1136.390625 251.492188 C 1142.191406 251.492188 1147.035156 247.347656 1148.140625 241.835938 C 1148.835938 242.003906 1149.558594 242.097656 1150.308594 242.097656 C 1154.496094 242.097656 1158.027344 239.269531 1159.105469 235.40625 C 1160.0625 235.898438 1161.144531 236.175781 1162.292969 236.175781 C 1166.164062 236.175781 1169.304688 233.019531 1169.304688 229.128906 C 1169.304688 225.238281 1166.164062 222.082031 1162.292969 222.082031 L 1027.074219 222.082031 C 1023.203125 222.082031 1020.066406 225.238281 1020.066406 229.128906 C 1020.066406 233.019531 1023.203125 236.175781 1027.074219 236.175781 Z M 1027.074219 236.175781 " fill-opacity="1" fill-rule="nonzero"/></g><g clip-path="url(#677f995dfb)"><path fill="#c7bbff" d="M 1076.878906 220.789062 C 1076.878906 211.089844 1068.949219 203.164062 1059.253906 203.164062 C 1068.949219 203.164062 1076.878906 195.238281 1076.878906 185.539062 C 1076.878906 195.238281 1084.804688 203.164062 1094.503906 203.164062 C 1084.804688 203.164062 1076.878906 211.089844 1076.878906 220.789062 Z M 1076.878906 220.789062 " fill-opacity="1" fill-rule="nonzero"/></g><g clip-path="url(#11a7cc2520)"><path fill="#c7bbff" d="M 1155.804688 264.4375 C 1155.804688 257.011719 1149.730469 250.9375 1142.304688 250.9375 C 1149.730469 250.9375 1155.804688 244.867188 1155.804688 237.4375 C 1155.804688 244.867188 1161.875 250.9375 1169.304688 250.9375 C 1161.875 250.9375 1155.804688 257.011719 1155.804688 264.4375 Z M 1155.804688 264.4375 " fill-opacity="1" fill-rule="nonzero"/></g><g clip-path="url(#1a820c7880)"><path fill="#c7bbff" d="M 960.574219 541.683594 C 942.96875 541.566406 939.828125 539.460938 939.691406 513.390625 C 939.691406 512.730469 939.15625 512.199219 938.503906 512.199219 C 937.851562 512.199219 937.316406 512.730469 937.316406 513.390625 C 937.179688 539.460938 934.039062 541.566406 916.433594 541.683594 C 915.644531 541.691406 915 542.335938 915 543.125 C 915 543.910156 915.644531 544.554688 916.433594 544.5625 C 934.035156 544.679688 937.179688 546.785156 937.3125 572.855469 C 937.316406 573.515625 937.851562 574.050781 938.503906 574.050781 C 939.15625 574.050781 939.6875 573.515625 939.691406 572.859375 C 939.824219 546.785156 942.96875 544.679688 960.574219 544.5625 C 961.363281 544.558594 962.007812 543.910156 962.007812 543.125 C 962.007812 542.335938 961.363281 541.691406 960.574219 541.683594 Z M 960.574219 541.683594 " fill-opacity="1" fill-rule="nonzero"/></g><g clip-path="url(#848a16196f)"><path fill="#c7bbff" d="M 1013.175781 520.082031 C 1000.363281 519.996094 997.84375 518.320312 997.746094 499.253906 C 997.746094 498.894531 997.453125 498.601562 997.101562 498.601562 C 996.746094 498.601562 996.457031 498.894531 996.453125 499.253906 C 996.355469 518.320312 993.835938 519.996094 981.027344 520.082031 C 980.570312 520.085938 980.199219 520.457031 980.199219 520.910156 C 980.199219 521.363281 980.570312 521.730469 981.027344 521.734375 C 993.839844 521.820312 996.355469 523.5 996.453125 542.566406 C 996.457031 542.921875 996.746094 543.214844 997.101562 543.214844 C 997.453125 543.214844 997.746094 542.921875 997.746094 542.566406 C 997.84375 523.496094 1000.363281 521.820312 1013.175781 521.734375 C 1013.628906 521.730469 1014 521.363281 1014 520.910156 C 1014 520.457031 1013.628906 520.085938 1013.175781 520.082031 Z M 1013.175781 520.082031 " fill-opacity="1" fill-rule="nonzero"/></g><path fill="#c7bbff" d="M 979.890625 554.480469 C 979.085938 556.855469 977.710938 558.632812 975.921875 559.59375 C 977.710938 560.558594 979.085938 562.335938 979.890625 564.710938 C 980.699219 562.335938 982.074219 560.558594 983.863281 559.59375 C 982.074219 558.632812 980.699219 556.855469 979.890625 554.480469 Z M 979.890625 554.480469 " fill-opacity="1" fill-rule="nonzero"/><path fill="#c7bbff" d="M 956.472656 516.496094 C 957.277344 514.121094 958.652344 512.34375 960.441406 511.382812 C 958.652344 510.417969 957.277344 508.644531 956.472656 506.269531 C 955.664062 508.644531 954.289062 510.421875 952.5 511.382812 C 954.289062 512.34375 955.664062 514.121094 956.472656 516.496094 Z M 956.472656 516.496094 " fill-opacity="1" fill-rule="nonzero"/><g clip-path="url(#8b2dfba20f)"><path fill="#c7bbff" d="M 1029.191406 487.488281 C 1020.390625 487.433594 1018.820312 486.390625 1018.753906 473.484375 C 1018.75 473.160156 1018.484375 472.894531 1018.15625 472.894531 C 1017.832031 472.894531 1017.566406 473.160156 1017.5625 473.484375 C 1017.496094 486.390625 1015.925781 487.433594 1007.121094 487.488281 C 1006.726562 487.492188 1006.40625 487.8125 1006.40625 488.203125 C 1006.40625 488.589844 1006.726562 488.910156 1007.121094 488.914062 C 1015.921875 488.972656 1017.496094 490.015625 1017.5625 502.917969 C 1017.5625 503.246094 1017.832031 503.511719 1018.15625 503.511719 C 1018.484375 503.511719 1018.75 503.246094 1018.75 502.921875 C 1018.816406 490.015625 1020.390625 488.972656 1029.191406 488.914062 C 1029.585938 488.910156 1029.910156 488.59375 1029.910156 488.203125 C 1029.910156 487.8125 1029.585938 487.492188 1029.191406 487.488281 Z M 1029.191406 487.488281 " fill-opacity="1" fill-rule="nonzero"/></g><g clip-path="url(#347df6dc53)"><path fill="#c7bbff" d="M 1055.492188 476.796875 C 1049.085938 476.753906 1047.828125 475.925781 1047.777344 466.484375 C 1047.777344 466.308594 1047.632812 466.164062 1047.457031 466.164062 C 1047.277344 466.164062 1047.132812 466.308594 1047.132812 466.484375 C 1047.085938 475.925781 1045.824219 476.753906 1039.417969 476.796875 C 1039.191406 476.800781 1039.003906 476.980469 1039.003906 477.207031 C 1039.003906 477.429688 1039.191406 477.613281 1039.417969 477.613281 C 1045.824219 477.65625 1047.085938 478.488281 1047.132812 487.925781 C 1047.132812 488.101562 1047.277344 488.246094 1047.457031 488.246094 C 1047.632812 488.246094 1047.777344 488.101562 1047.777344 487.925781 C 1047.828125 478.488281 1049.085938 477.65625 1055.492188 477.613281 C 1055.71875 477.613281 1055.90625 477.429688 1055.90625 477.207031 C 1055.90625 476.980469 1055.71875 476.800781 1055.492188 476.796875 Z M 1055.492188 476.796875 " fill-opacity="1" fill-rule="nonzero"/></g><path fill="#c7bbff" d="M 1038.851562 493.824219 C 1038.449219 495 1037.761719 495.878906 1036.867188 496.355469 C 1037.761719 496.832031 1038.449219 497.710938 1038.851562 498.886719 C 1039.253906 497.710938 1039.941406 496.832031 1040.835938 496.355469 C 1039.941406 495.878906 1039.253906 495 1038.851562 493.824219 Z M 1038.851562 493.824219 " fill-opacity="1" fill-rule="nonzero"/><path fill="#c7bbff" d="M 1027.140625 475.023438 C 1027.546875 473.847656 1028.234375 472.96875 1029.125 472.492188 C 1028.234375 472.015625 1027.546875 471.132812 1027.140625 469.960938 C 1026.738281 471.132812 1026.050781 472.015625 1025.15625 472.492188 C 1026.050781 472.96875 1026.738281 473.847656 1027.140625 475.023438 Z M 1027.140625 475.023438 " fill-opacity="1" fill-rule="nonzero"/><g clip-path="url(#21a67884e1)"><path fill="#c7bbff" d="M 624.574219 672.046875 C 606.96875 671.929688 603.828125 669.824219 603.691406 643.753906 C 603.691406 643.09375 603.15625 642.558594 602.503906 642.558594 C 601.851562 642.558594 601.316406 643.09375 601.316406 643.753906 C 601.179688 669.824219 598.039062 671.929688 580.433594 672.046875 C 579.644531 672.054688 579 672.699219 579 673.484375 C 579 674.273438 579.644531 674.917969 580.433594 674.921875 C 598.035156 675.042969 601.179688 677.148438 601.3125 703.21875 C 601.316406 703.878906 601.851562 704.414062 602.503906 704.414062 C 603.15625 704.414062 603.6875 703.878906 603.691406 703.21875 C 603.824219 677.148438 606.96875 675.042969 624.574219 674.925781 C 625.363281 674.917969 626.007812 674.273438 626.007812 673.488281 C 626.007812 672.699219 625.363281 672.054688 624.574219 672.046875 Z M 624.574219 672.046875 " fill-opacity="1" fill-rule="nonzero"/></g><g clip-path="url(#e36f34bd01)"><path fill="#c7bbff" d="M 677.175781 650.445312 C 664.363281 650.359375 661.84375 648.683594 661.746094 629.613281 C 661.746094 629.257812 661.453125 628.964844 661.101562 628.964844 C 660.746094 628.964844 660.457031 629.257812 660.453125 629.613281 C 660.355469 648.683594 657.835938 650.359375 645.027344 650.445312 C 644.570312 650.449219 644.199219 650.820312 644.199219 651.269531 C 644.199219 651.722656 644.570312 652.09375 645.027344 652.097656 C 657.839844 652.183594 660.355469 653.863281 660.453125 672.929688 C 660.457031 673.285156 660.746094 673.578125 661.101562 673.578125 C 661.453125 673.578125 661.746094 673.285156 661.746094 672.929688 C 661.84375 653.859375 664.363281 652.183594 677.175781 652.097656 C 677.628906 652.09375 678 651.722656 678 651.269531 C 678 650.820312 677.628906 650.449219 677.175781 650.445312 Z M 677.175781 650.445312 " fill-opacity="1" fill-rule="nonzero"/></g><path fill="#c7bbff" d="M 643.890625 684.84375 C 643.085938 687.21875 641.710938 688.996094 639.921875 689.957031 C 641.710938 690.921875 643.085938 692.699219 643.890625 695.074219 C 644.699219 692.699219 646.074219 690.921875 647.863281 689.957031 C 646.074219 688.996094 644.699219 687.21875 643.890625 684.84375 Z M 643.890625 684.84375 " fill-opacity="1" fill-rule="nonzero"/><path fill="#c7bbff" d="M 620.472656 646.859375 C 621.277344 644.484375 622.652344 642.707031 624.441406 641.746094 C 622.652344 640.78125 621.277344 639.007812 620.472656 636.632812 C 619.664062 639.007812 618.289062 640.785156 616.5 641.746094 C 618.289062 642.707031 619.664062 644.484375 620.472656 646.859375 Z M 620.472656 646.859375 " fill-opacity="1" fill-rule="nonzero"/><g clip-path="url(#0fc7f8a506)"><path fill="#a697ed" d="M 333.386719 193.660156 C 331.816406 193.660156 330.335938 194.039062 329.027344 194.699219 C 327.546875 189.480469 322.722656 185.65625 317.003906 185.65625 C 315.984375 185.65625 314.992188 185.78125 314.039062 186.007812 C 312.53125 178.5625 305.910156 172.957031 297.976562 172.957031 C 291.0625 172.957031 285.15625 177.214844 282.75 183.242188 C 279.496094 179.640625 274.773438 177.375 269.523438 177.375 C 268.636719 177.375 267.773438 177.441406 266.929688 177.5625 C 265.902344 166.617188 256.640625 158.050781 245.367188 158.050781 C 238.359375 158.050781 232.128906 161.363281 228.167969 166.496094 C 226.578125 166.03125 224.894531 165.777344 223.152344 165.777344 C 215.269531 165.777344 208.59375 170.875 206.265625 177.941406 C 204.828125 177.570312 203.320312 177.367188 201.773438 177.367188 C 199.785156 177.367188 197.882812 177.695312 196.097656 178.296875 C 193.101562 175.015625 188.78125 172.957031 183.972656 172.957031 C 176.039062 172.957031 169.421875 178.5625 167.914062 186.007812 C 166.960938 185.78125 165.972656 185.65625 164.949219 185.65625 C 159.222656 185.65625 154.398438 189.480469 152.925781 194.699219 C 151.617188 194.035156 150.132812 193.660156 148.566406 193.660156 C 143.273438 193.660156 138.984375 197.925781 138.984375 203.1875 C 138.984375 208.445312 143.273438 212.714844 148.566406 212.714844 L 333.386719 212.714844 C 338.675781 212.714844 342.96875 208.445312 342.96875 203.1875 C 342.96875 197.925781 338.675781 193.660156 333.386719 193.660156 Z M 333.386719 193.660156 " fill-opacity="1" fill-rule="nonzero"/></g><g clip-path="url(#40d4ee264a)"><path fill="#c7bbff" d="M 193.925781 243.710938 C 184.726562 243.648438 183.082031 242.546875 183.011719 228.863281 C 183.011719 228.515625 182.730469 228.234375 182.390625 228.234375 C 182.050781 228.234375 181.769531 228.515625 181.769531 228.863281 C 181.699219 242.546875 180.054688 243.652344 170.855469 243.710938 C 170.441406 243.714844 170.105469 244.054688 170.105469 244.46875 C 170.105469 244.878906 170.441406 245.21875 170.851562 245.222656 C 180.054688 245.285156 181.699219 246.386719 181.769531 260.070312 C 181.769531 260.417969 182.050781 260.699219 182.390625 260.699219 C 182.730469 260.699219 183.011719 260.417969 183.011719 260.074219 C 183.082031 246.386719 184.726562 245.285156 193.925781 245.222656 C 194.339844 245.21875 194.675781 244.878906 194.675781 244.46875 C 194.675781 244.054688 194.339844 243.714844 193.925781 243.710938 Z M 193.925781 243.710938 " fill-opacity="1" fill-rule="nonzero"/></g><g clip-path="url(#aa78aae183)"><path fill="#c7bbff" d="M 221.421875 232.375 C 214.726562 232.328125 213.410156 231.449219 213.359375 221.441406 C 213.355469 221.253906 213.207031 221.101562 213.019531 221.101562 C 212.835938 221.101562 212.683594 221.253906 212.683594 221.441406 C 212.632812 231.449219 211.316406 232.328125 204.617188 232.375 C 204.378906 232.375 204.1875 232.570312 204.1875 232.808594 C 204.1875 233.046875 204.378906 233.238281 204.617188 233.242188 C 211.316406 233.285156 212.632812 234.167969 212.683594 244.175781 C 212.683594 244.363281 212.835938 244.515625 213.019531 244.515625 C 213.207031 244.515625 213.355469 244.363281 213.359375 244.175781 C 213.410156 234.167969 214.726562 233.285156 221.421875 233.242188 C 221.660156 233.238281 221.855469 233.046875 221.855469 232.808594 C 221.855469 232.570312 221.660156 232.375 221.421875 232.375 Z M 221.421875 232.375 " fill-opacity="1" fill-rule="nonzero"/></g><path fill="#c7bbff" d="M 204.023438 250.425781 C 203.601562 251.671875 202.882812 252.605469 201.949219 253.113281 C 202.882812 253.617188 203.601562 254.550781 204.023438 255.796875 C 204.445312 254.550781 205.167969 253.617188 206.101562 253.113281 C 205.167969 252.605469 204.445312 251.671875 204.023438 250.425781 Z M 204.023438 250.425781 " fill-opacity="1" fill-rule="nonzero"/><path fill="#c7bbff" d="M 191.78125 230.492188 C 192.203125 229.246094 192.921875 228.3125 193.859375 227.808594 C 192.921875 227.304688 192.203125 226.371094 191.78125 225.125 C 191.359375 226.371094 190.640625 227.304688 189.707031 227.808594 C 190.640625 228.3125 191.359375 229.246094 191.78125 230.492188 Z M 191.78125 230.492188 " fill-opacity="1" fill-rule="nonzero"/><g clip-path="url(#e3c3f0251a)"><path fill="#c7bbff" d="M 306.621094 186.582031 C 295.953125 186.511719 294.046875 185.238281 293.964844 169.488281 C 293.964844 169.09375 293.640625 168.769531 293.246094 168.769531 C 292.847656 168.769531 292.527344 169.09375 292.523438 169.488281 C 292.441406 185.238281 290.539062 186.511719 279.867188 186.582031 C 279.390625 186.585938 279 186.976562 279 187.449219 C 279 187.925781 279.390625 188.316406 279.867188 188.320312 C 290.539062 188.390625 292.441406 189.660156 292.523438 205.410156 C 292.527344 205.808594 292.847656 206.132812 293.242188 206.132812 C 293.640625 206.132812 293.964844 205.808594 293.964844 205.410156 C 294.046875 189.660156 295.953125 188.390625 306.621094 188.320312 C 307.097656 188.316406 307.488281 187.925781 307.488281 187.449219 C 307.488281 186.976562 307.097656 186.585938 306.621094 186.582031 Z M 306.621094 186.582031 " fill-opacity="1" fill-rule="nonzero"/></g><g clip-path="url(#7fd441b028)"><path fill="#c7bbff" d="M 338.5 173.53125 C 330.734375 173.480469 329.207031 172.46875 329.148438 160.949219 C 329.148438 160.734375 328.972656 160.558594 328.757812 160.558594 C 328.542969 160.558594 328.367188 160.734375 328.367188 160.949219 C 328.308594 172.46875 326.78125 173.480469 319.015625 173.53125 C 318.738281 173.535156 318.515625 173.757812 318.515625 174.03125 C 318.515625 174.304688 318.738281 174.527344 319.015625 174.53125 C 326.78125 174.582031 328.308594 175.597656 328.367188 187.113281 C 328.367188 187.328125 328.542969 187.503906 328.757812 187.503906 C 328.972656 187.503906 329.148438 187.328125 329.148438 187.113281 C 329.207031 175.59375 330.734375 174.582031 338.5 174.53125 C 338.777344 174.527344 339 174.304688 339 174.03125 C 339 173.757812 338.777344 173.535156 338.5 173.53125 Z M 338.5 173.53125 " fill-opacity="1" fill-rule="nonzero"/></g><path fill="#c7bbff" d="M 318.328125 194.3125 C 317.839844 195.746094 317.003906 196.820312 315.921875 197.398438 C 317.003906 197.980469 317.839844 199.054688 318.328125 200.488281 C 318.816406 199.054688 319.652344 197.980469 320.734375 197.398438 C 319.652344 196.820312 318.816406 195.746094 318.328125 194.3125 Z M 318.328125 194.3125 " fill-opacity="1" fill-rule="nonzero"/><path fill="#c7bbff" d="M 304.132812 171.367188 C 304.625 169.933594 305.457031 168.859375 306.539062 168.277344 C 305.457031 167.695312 304.625 166.621094 304.132812 165.1875 C 303.644531 166.621094 302.8125 167.695312 301.726562 168.277344 C 302.8125 168.859375 303.644531 169.933594 304.132812 171.367188 Z M 304.132812 171.367188 " fill-opacity="1" fill-rule="nonzero"/><g fill="#000000" fill-opacity="1"><g transform="translate(518.901667, 394.976367)"><g><path d="M 13.785156 0.460938 L 17.835938 0.5625 L 18.859375 0.460938 L 19.882812 0.203125 L 20.910156 0.0507812 L 21.933594 -0.359375 L 22.855469 -0.460938 L 23.832031 -0.921875 L 27.316406 -3.023438 L 28.800781 -4.5625 L 29.3125 -5.277344 L 29.878906 -6.40625 L 30.183594 -7.328125 L 30.492188 -8.199219 L 30.800781 -10.761719 L 30.695312 -12.402344 L 29.929688 -15.375 L 29.363281 -16.195312 L 28.03125 -17.730469 L 27.109375 -18.550781 L 26.289062 -18.960938 L 25.367188 -19.523438 L 21.371094 -20.753906 L 20.34375 -20.910156 L 19.320312 -20.960938 L 18.242188 -21.164062 L 16.757812 -21.164062 L 14.042969 -21.730469 L 12.144531 -22.652344 L 11.375 -23.367188 L 11.171875 -24.90625 L 11.429688 -26.289062 L 12.042969 -26.957031 L 12.8125 -27.519531 L 13.632812 -27.980469 L 14.554688 -28.1875 L 16.195312 -28.238281 L 17.835938 -28.03125 L 18.757812 -27.777344 L 19.679688 -27.160156 L 20.550781 -26.445312 L 21.320312 -25.417969 L 22.445312 -24.753906 L 24.855469 -24.957031 L 26.238281 -24.855469 L 27.261719 -24.855469 L 28.1875 -24.753906 L 29.160156 -25.46875 L 29.570312 -26.339844 L 29.363281 -27.316406 L 29.261719 -28.289062 L 27.828125 -30.953125 L 26.699219 -32.492188 L 23.316406 -34.847656 L 20.449219 -35.820312 L 18.449219 -36.230469 L 14.503906 -36.335938 L 13.375 -36.027344 L 12.351562 -35.976562 L 11.429688 -35.820312 L 9.480469 -35.207031 L 7.738281 -34.183594 L 5.277344 -32.492188 L 3.484375 -30.082031 L 2.5625 -27.261719 L 2.410156 -24.753906 L 2.460938 -23.164062 L 2.820312 -21.113281 L 3.636719 -19.320312 L 5.535156 -16.964844 L 9.019531 -15.066406 L 10.863281 -14.453125 L 18.910156 -13.53125 L 20.753906 -12.65625 L 21.421875 -12.042969 L 21.730469 -10.761719 L 21.320312 -9.480469 L 20.652344 -8.710938 L 18.910156 -7.945312 L 17.320312 -7.839844 L 16.398438 -7.6875 L 13.785156 -7.945312 L 12.914062 -8.40625 L 12.042969 -8.96875 L 10.351562 -10.8125 L 9.328125 -11.222656 L 8.40625 -11.121094 L 7.429688 -11.273438 L 3.484375 -11.070312 L 2.5625 -10.660156 L 2.152344 -9.582031 L 2.304688 -8.558594 L 2.511719 -7.535156 L 2.820312 -6.609375 L 3.792969 -4.714844 L 4.511719 -4.046875 L 5.175781 -3.28125 L 6.96875 -2.152344 L 7.6875 -1.382812 L 8.660156 -0.921875 L 9.6875 -0.613281 L 11.683594 0.101562 Z M 13.785156 0.460938 "/></g></g></g><g fill="#000000" fill-opacity="1"><g transform="translate(551.59668, 394.976367)"><g><path d="M 3.691406 -1.484375 L 4.355469 -0.511719 L 5.328125 0.0507812 L 16.910156 -0.0507812 L 17.835938 0.101562 L 20.960938 -0.0507812 L 24.085938 0.152344 L 25.058594 0.0507812 L 26.136719 -0.460938 L 26.597656 -1.433594 L 26.699219 -2.410156 L 26.648438 -5.585938 L 26.75 -6.558594 L 26.085938 -7.585938 L 24.546875 -8.097656 L 17.78125 -8.199219 L 16.808594 -8.046875 L 15.683594 -8.148438 L 14.554688 -8.046875 L 13.476562 -8.660156 L 13.015625 -10.25 L 13.066406 -12.761719 L 13.53125 -13.835938 L 14.453125 -14.402344 L 16.449219 -14.402344 L 17.476562 -14.503906 L 20.191406 -14.347656 L 21.574219 -14.453125 L 22.652344 -14.347656 L 23.574219 -14.402344 L 24.597656 -14.964844 L 25.109375 -15.9375 L 25.214844 -19.988281 L 25.109375 -21.011719 L 24.648438 -21.984375 L 23.777344 -22.550781 L 21.730469 -22.601562 L 20.703125 -22.496094 L 19.628906 -22.496094 L 18.449219 -22.601562 L 14.402344 -22.550781 L 13.53125 -23.113281 L 12.914062 -24.035156 L 12.8125 -25.625 L 13.324219 -27.109375 L 14.914062 -27.570312 L 24.753906 -27.621094 L 25.828125 -28.1875 L 26.390625 -29.109375 L 26.289062 -31.210938 L 26.136719 -32.183594 L 26.1875 -33.3125 L 26.339844 -34.285156 L 25.828125 -35.308594 L 24.753906 -35.769531 L 20.652344 -35.820312 L 19.730469 -35.71875 L 18.707031 -35.875 L 16.449219 -35.769531 L 15.425781 -35.875 L 13.425781 -35.820312 L 12.503906 -35.925781 L 5.789062 -35.769531 L 4.304688 -35.410156 L 3.792969 -34.285156 L 3.894531 -32.234375 L 3.691406 -30.75 L 3.894531 -28.136719 L 3.792969 -27.058594 L 3.894531 -26.136719 L 3.894531 -16.964844 L 3.742188 -15.886719 L 3.894531 -13.886719 L 3.792969 -11.839844 L 3.945312 -10.761719 L 3.84375 -9.632812 L 3.894531 -8.660156 L 3.742188 -7.738281 L 3.84375 -6.558594 L 3.84375 -5.535156 L 3.945312 -3.535156 L 3.894531 -2.511719 Z M 3.691406 -1.484375 "/></g></g></g><g fill="#000000" fill-opacity="1"><g transform="translate(580.960696, 394.976367)"><g><path d="M 12.964844 0.5625 L 16.039062 0.667969 L 19.167969 0.0507812 L 22.035156 -1.128906 L 23.882812 -2.253906 L 26.597656 -5.328125 L 27.210938 -6.253906 L 27.621094 -7.226562 L 27.726562 -8.097656 L 28.136719 -9.070312 L 28.441406 -21.371094 L 28.339844 -22.292969 L 28.492188 -23.316406 L 28.441406 -30.390625 L 28.289062 -31.363281 L 28.441406 -33.363281 L 28.339844 -34.335938 L 27.828125 -35.308594 L 26.90625 -35.925781 L 25.929688 -35.820312 L 24.703125 -35.875 L 22.140625 -35.71875 L 19.0625 -35.875 L 17.425781 -35.769531 L 15.9375 -35.925781 L 14.347656 -35.769531 L 13.324219 -35.875 L 12.25 -35.257812 L 11.785156 -34.234375 L 11.734375 -32.183594 L 11.839844 -31.3125 L 11.734375 -30.234375 L 11.734375 -29.109375 L 12.195312 -28.1875 L 13.375 -27.621094 L 14.296875 -27.671875 L 17.527344 -27.621094 L 18.5 -27.058594 L 19.0625 -26.035156 L 19.167969 -24.035156 L 18.960938 -23.011719 L 19.167969 -20.804688 L 19.011719 -19.832031 L 18.960938 -18.652344 L 19.117188 -17.628906 L 18.859375 -10.453125 L 18.550781 -9.480469 L 17.886719 -8.710938 L 16.964844 -8.097656 L 16.144531 -7.6875 L 14.453125 -7.636719 L 12.914062 -7.789062 L 12.042969 -8.148438 L 11.324219 -8.660156 L 10.609375 -9.429688 L 10.199219 -10.453125 L 9.789062 -11.839844 L 9.789062 -13.835938 L 9.890625 -14.65625 L 9.277344 -16.144531 L 8.097656 -16.605469 L 7.175781 -16.5 L 2.765625 -16.449219 L 1.742188 -16.039062 L 1.230469 -15.117188 L 1.332031 -14.09375 L 1.179688 -13.222656 L 1.078125 -11.785156 L 1.179688 -10.148438 L 1.332031 -9.222656 L 1.742188 -8.25 L 2.050781 -7.226562 L 2.871094 -5.277344 L 4.714844 -2.921875 L 5.433594 -2.203125 L 6.199219 -1.589844 L 7.175781 -1.179688 L 8.046875 -0.613281 L 9.070312 -0.203125 Z M 12.964844 0.5625 "/></g></g></g><g fill="#000000" fill-opacity="1"><g transform="translate(612.938268, 394.976367)"><g><path d="M 0.667969 -1.382812 L 0.921875 -0.308594 L 1.949219 -0.0507812 L 6.457031 -0.0507812 L 7.789062 0.101562 L 8.96875 -0.410156 L 9.890625 -1.332031 L 10.761719 -3.074219 L 11.632812 -4.046875 L 12.863281 -4.5625 L 13.886719 -4.457031 L 16.757812 -4.511719 L 17.835938 -4.355469 L 19.011719 -4.511719 L 19.933594 -4.511719 L 21.011719 -4.40625 L 23.421875 -4.511719 L 25.109375 -3.945312 L 26.1875 -3.125 L 26.445312 -2.203125 L 27.007812 -1.28125 L 27.878906 -0.460938 L 29.210938 0.0507812 L 30.132812 -0.0507812 L 31.925781 0.101562 L 35.105469 0 L 36.027344 -0.308594 L 36.230469 -1.382812 L 35.925781 -2.664062 L 35.566406 -3.585938 L 34.898438 -4.457031 L 34.59375 -5.484375 L 34.078125 -6.253906 L 33.773438 -7.226562 L 32.902344 -9.070312 L 32.542969 -10.042969 L 32.03125 -10.914062 L 31.3125 -12.8125 L 30.75 -13.632812 L 30.339844 -14.65625 L 29.878906 -15.527344 L 29.519531 -16.554688 L 29.058594 -17.320312 L 28.75 -18.347656 L 28.1875 -19.269531 L 27.777344 -20.140625 L 27.261719 -21.011719 L 27.007812 -21.984375 L 25.984375 -23.777344 L 25.675781 -24.753906 L 24.753906 -26.699219 L 24.496094 -27.519531 L 23.726562 -29.3125 L 22.703125 -31.210938 L 21.882812 -33.15625 L 21.421875 -33.925781 L 21.113281 -34.898438 L 20.191406 -35.875 L 18.449219 -36.335938 L 16.808594 -35.820312 L 15.835938 -34.898438 L 15.527344 -33.976562 L 13.324219 -29.363281 L 12.761719 -28.441406 L 9.890625 -21.984375 L 9.632812 -21.113281 L 9.070312 -20.191406 L 8.25 -18.347656 L 7.480469 -17.015625 L 7.125 -16.039062 L 6.40625 -14.707031 L 6.097656 -13.632812 L 5.636719 -12.8125 L 5.277344 -11.785156 L 3.84375 -9.121094 L 2.355469 -5.382812 L 1.742188 -4.5625 L 1.28125 -3.535156 Z M 16.5 -12.65625 L 15.527344 -13.066406 L 15.375 -14.09375 L 17.425781 -18.757812 L 17.886719 -19.578125 L 18.550781 -20.089844 L 19.167969 -19.679688 L 19.832031 -17.679688 L 20.398438 -16.808594 L 20.601562 -15.988281 L 21.113281 -14.964844 L 21.472656 -14.042969 L 21.371094 -13.121094 L 20.5 -12.710938 Z M 16.5 -12.65625 "/></g></g></g><g fill="#000000" fill-opacity="1"><g transform="translate(650.14294, 394.976367)"><g/></g></g><g fill="#000000" fill-opacity="1"><g transform="translate(664.030631, 394.976367)"><g><path d="M 3.742188 -1.539062 L 4.304688 -0.359375 L 5.277344 0.101562 L 22.242188 -0.101562 L 24.1875 -0.359375 L 25.878906 -1.023438 L 27.828125 -2.152344 L 28.492188 -2.664062 L 29.3125 -3.433594 L 30.492188 -5.125 L 30.953125 -6.097656 L 31.160156 -6.96875 L 31.570312 -7.996094 L 31.621094 -12.09375 L 31.414062 -13.066406 L 31.054688 -14.144531 L 30.132812 -15.9375 L 29.417969 -16.808594 L 28.648438 -17.578125 L 28.1875 -18.707031 L 28.390625 -19.730469 L 28.953125 -20.753906 L 29.570312 -21.625 L 30.289062 -25.316406 L 30.234375 -26.800781 L 29.671875 -28.699219 L 29.160156 -29.671875 L 28.851562 -30.644531 L 27.621094 -32.285156 L 26.90625 -33.003906 L 25.367188 -34.078125 L 23.472656 -35.105469 L 20.601562 -35.769531 L 5.175781 -35.875 L 4.152344 -35.410156 L 3.691406 -34.335938 L 3.792969 -32.132812 L 3.691406 -30.644531 L 3.894531 -27.210938 L 3.742188 -26.136719 L 3.84375 -25.058594 L 3.742188 -24.085938 L 3.792969 -23.011719 L 3.691406 -22.035156 L 3.691406 -17.9375 L 3.84375 -16.859375 L 3.742188 -15.886719 L 3.742188 -13.835938 L 3.84375 -12.863281 L 3.742188 -8.660156 L 3.894531 -6.558594 L 3.691406 -3.484375 Z M 14.246094 -21.984375 L 13.015625 -22.394531 L 12.503906 -23.421875 L 12.710938 -24.292969 L 12.710938 -25.265625 L 12.605469 -26.238281 L 13.171875 -27.109375 L 14.246094 -27.671875 L 17.9375 -27.519531 L 19.523438 -27.210938 L 20.140625 -26.800781 L 20.804688 -26.085938 L 20.960938 -24.703125 L 20.703125 -23.164062 L 19.832031 -22.34375 L 18.089844 -21.984375 Z M 14.09375 -8.148438 L 13.222656 -8.558594 L 12.65625 -9.632812 L 12.710938 -10.503906 L 12.605469 -11.480469 L 12.65625 -12.503906 L 13.015625 -13.425781 L 14.042969 -13.9375 L 19.472656 -13.9375 L 20.910156 -13.683594 L 21.675781 -13.121094 L 22.445312 -12.402344 L 22.550781 -10.96875 L 22.445312 -9.632812 L 21.78125 -8.917969 L 20.859375 -8.351562 L 18.089844 -8.097656 Z M 14.09375 -8.148438 "/></g></g></g><g fill="#000000" fill-opacity="1"><g transform="translate(697.853059, 394.976367)"><g><path d="M 3.691406 -1.484375 L 4.355469 -0.511719 L 5.328125 0.0507812 L 16.910156 -0.0507812 L 17.835938 0.101562 L 20.960938 -0.0507812 L 24.085938 0.152344 L 25.058594 0.0507812 L 26.136719 -0.460938 L 26.597656 -1.433594 L 26.699219 -2.410156 L 26.648438 -5.585938 L 26.75 -6.558594 L 26.085938 -7.585938 L 24.546875 -8.097656 L 17.78125 -8.199219 L 16.808594 -8.046875 L 15.683594 -8.148438 L 14.554688 -8.046875 L 13.476562 -8.660156 L 13.015625 -10.25 L 13.066406 -12.761719 L 13.53125 -13.835938 L 14.453125 -14.402344 L 16.449219 -14.402344 L 17.476562 -14.503906 L 20.191406 -14.347656 L 21.574219 -14.453125 L 22.652344 -14.347656 L 23.574219 -14.402344 L 24.597656 -14.964844 L 25.109375 -15.9375 L 25.214844 -19.988281 L 25.109375 -21.011719 L 24.648438 -21.984375 L 23.777344 -22.550781 L 21.730469 -22.601562 L 20.703125 -22.496094 L 19.628906 -22.496094 L 18.449219 -22.601562 L 14.402344 -22.550781 L 13.53125 -23.113281 L 12.914062 -24.035156 L 12.8125 -25.625 L 13.324219 -27.109375 L 14.914062 -27.570312 L 24.753906 -27.621094 L 25.828125 -28.1875 L 26.390625 -29.109375 L 26.289062 -31.210938 L 26.136719 -32.183594 L 26.1875 -33.3125 L 26.339844 -34.285156 L 25.828125 -35.308594 L 24.753906 -35.769531 L 20.652344 -35.820312 L 19.730469 -35.71875 L 18.707031 -35.875 L 16.449219 -35.769531 L 15.425781 -35.875 L 13.425781 -35.820312 L 12.503906 -35.925781 L 5.789062 -35.769531 L 4.304688 -35.410156 L 3.792969 -34.285156 L 3.894531 -32.234375 L 3.691406 -30.75 L 3.894531 -28.136719 L 3.792969 -27.058594 L 3.894531 -26.136719 L 3.894531 -16.964844 L 3.742188 -15.886719 L 3.894531 -13.886719 L 3.792969 -11.839844 L 3.945312 -10.761719 L 3.84375 -9.632812 L 3.894531 -8.660156 L 3.742188 -7.738281 L 3.84375 -6.558594 L 3.84375 -5.535156 L 3.945312 -3.535156 L 3.894531 -2.511719 Z M 3.691406 -1.484375 "/></g></g></g><g fill="#000000" fill-opacity="1"><g transform="translate(727.217087, 394.976367)"><g><path d="M 3.792969 -1.484375 L 4.253906 -0.5625 L 5.484375 0 L 11.121094 -0.101562 L 12.65625 -0.5625 L 13.222656 -1.382812 L 13.324219 -2.355469 L 13.273438 -3.433594 L 13.121094 -4.511719 L 13.273438 -11.429688 L 13.066406 -14.402344 L 13.53125 -15.117188 L 14.296875 -14.914062 L 15.578125 -13.324219 L 18.449219 -10.609375 L 19.117188 -9.738281 L 20.804688 -8.351562 L 21.984375 -8.351562 L 22.855469 -8.96875 L 27.160156 -13.324219 L 27.828125 -14.195312 L 28.542969 -14.914062 L 29.160156 -15.015625 L 29.570312 -14.402344 L 29.722656 -13.375 L 29.570312 -12.402344 L 29.621094 -11.480469 L 29.570312 -10.453125 L 29.722656 -8.558594 L 29.570312 -1.484375 L 30.082031 -0.410156 L 31.210938 0 L 37.359375 0.0507812 L 38.332031 -0.5625 L 38.898438 -1.640625 L 39.050781 -2.664062 L 38.84375 -8.816406 L 38.949219 -9.789062 L 38.84375 -11.785156 L 39 -12.8125 L 38.949219 -13.835938 L 39.050781 -14.914062 L 38.949219 -15.9375 L 39.101562 -16.859375 L 38.949219 -31.363281 L 39.050781 -32.441406 L 38.949219 -33.3125 L 39 -34.386719 L 38.4375 -35.359375 L 37.410156 -35.976562 L 35.875 -35.515625 L 34.59375 -34.796875 L 33.414062 -33.363281 L 30.492188 -30.339844 L 30.03125 -29.570312 L 22.445312 -21.523438 L 21.320312 -21.164062 L 20.398438 -21.472656 L 19.730469 -22.140625 L 19.117188 -23.011719 L 18.296875 -23.675781 L 17.679688 -24.496094 L 14.144531 -28.136719 L 12.914062 -29.671875 L 12.042969 -30.441406 L 11.375 -31.160156 L 10.8125 -31.925781 L 10.097656 -32.59375 L 9.53125 -33.3125 L 8.40625 -34.488281 L 6.917969 -35.566406 L 5.433594 -35.976562 L 4.40625 -35.410156 L 3.84375 -34.386719 L 3.742188 -33.3125 L 3.894531 -10.710938 L 3.691406 -9.738281 L 3.894531 -2.460938 Z M 3.792969 -1.484375 "/></g></g></g><g fill="#000000" fill-opacity="1"><g transform="translate(770.05882, 394.976367)"><g/></g></g><g fill="#000000" fill-opacity="1"><g transform="translate(783.9465, 394.976367)"><g><path d="M 14.453125 -0.921875 L 15.273438 0 L 16.5 0.460938 L 17.527344 0.5625 L 18.910156 -0.0507812 L 19.78125 -0.871094 L 20.089844 -1.84375 L 20.960938 -3.84375 L 21.421875 -4.816406 L 21.933594 -5.6875 L 22.753906 -7.535156 L 23.0625 -8.457031 L 26.136719 -15.015625 L 26.75 -17.015625 L 27.828125 -18.859375 L 28.390625 -20.804688 L 28.953125 -21.832031 L 29.210938 -22.703125 L 29.46875 -23.675781 L 30.183594 -24.597656 L 30.441406 -25.574219 L 31.105469 -26.339844 L 31.875 -28.339844 L 32.132812 -29.261719 L 32.695312 -30.132812 L 33.054688 -31.160156 L 33.566406 -32.132812 L 33.773438 -33.003906 L 34.285156 -34.234375 L 33.976562 -35.515625 L 33.105469 -35.820312 L 27.058594 -35.820312 L 25.878906 -35.410156 L 24.957031 -34.4375 L 24.703125 -33.515625 L 18.601562 -18.5 L 18.089844 -17.527344 L 17.835938 -16.605469 L 17.21875 -15.683594 L 16.605469 -15.578125 L 16.195312 -16.5 L 15.527344 -18.449219 L 15.117188 -19.371094 L 14.808594 -20.398438 L 14.453125 -21.214844 L 13.886719 -22.140625 L 13.273438 -24.1875 L 12.8125 -25.007812 L 12.453125 -25.929688 L 12.25 -26.957031 L 10.453125 -30.644531 L 10.300781 -31.621094 L 9.789062 -32.59375 L 9.429688 -33.515625 L 8.96875 -34.335938 L 8.097656 -35.359375 L 6.917969 -35.769531 L 4.046875 -35.925781 L 3.175781 -35.820312 L 2.253906 -35.925781 L 1.179688 -35.875 L 0.101562 -35.410156 L 0 -34.285156 L 0.203125 -33.054688 L 0.667969 -32.132812 L 1.433594 -30.183594 L 1.894531 -29.261719 L 2.203125 -28.339844 L 2.765625 -27.367188 L 3.585938 -25.367188 L 4.101562 -24.445312 L 5.636719 -20.703125 L 6.148438 -19.882812 L 9.53125 -12.25 L 9.789062 -11.375 L 10.660156 -9.53125 L 10.96875 -8.558594 L 12.300781 -5.585938 L 12.8125 -4.816406 L 13.066406 -3.742188 Z M 14.453125 -0.921875 "/></g></g></g><g fill="#000000" fill-opacity="1"><g transform="translate(818.48637, 394.976367)"><g><path d="M 2.460938 -1.484375 L 2.972656 -0.410156 L 3.996094 -0.0507812 L 19.21875 0.0507812 L 20.191406 -0.460938 L 20.753906 -1.382812 L 20.753906 -2.511719 L 20.652344 -3.433594 L 20.804688 -6.558594 L 20.089844 -7.429688 L 16.65625 -8.507812 L 16.089844 -9.53125 L 16.195312 -13.734375 L 15.988281 -15.785156 L 16.195312 -17.9375 L 16.089844 -19.472656 L 16.195312 -21.0625 L 16.089844 -22.035156 L 16.195312 -23.0625 L 16.089844 -24.136719 L 16.089844 -26.289062 L 16.65625 -27.210938 L 17.628906 -27.777344 L 18.757812 -27.828125 L 19.730469 -28.390625 L 20.292969 -29.363281 L 20.292969 -32.386719 L 20.398438 -33.3125 L 20.292969 -34.335938 L 19.882812 -35.359375 L 18.242188 -35.820312 L 11.734375 -35.875 L 10.609375 -35.769531 L 7.480469 -35.820312 L 6.507812 -35.769531 L 4.511719 -35.875 L 3.382812 -35.359375 L 2.820312 -34.285156 L 2.820312 -33.3125 L 2.714844 -32.441406 L 2.714844 -31.3125 L 2.820312 -30.289062 L 2.820312 -29.3125 L 3.332031 -28.339844 L 6.457031 -27.261719 L 7.125 -26.339844 L 6.96875 -21.984375 L 7.019531 -21.113281 L 7.175781 -19.933594 L 7.125 -17.835938 L 7.019531 -16.808594 L 7.226562 -14.808594 L 6.96875 -13.785156 L 7.175781 -11.582031 L 7.070312 -9.582031 L 6.558594 -8.457031 L 3.175781 -7.378906 L 2.5625 -6.40625 L 2.460938 -5.433594 Z M 2.460938 -1.484375 "/></g></g></g><g fill="#000000" fill-opacity="1"><g transform="translate(841.752115, 394.976367)"><g><path d="M 30.234375 -0.820312 L 31.722656 -0.152344 L 33.054688 0.257812 L 34.234375 -0.308594 L 34.695312 -1.382812 L 34.949219 -15.324219 L 34.746094 -16.757812 L 34.847656 -17.886719 L 34.644531 -24.035156 L 34.796875 -26.085938 L 34.695312 -27.058594 L 34.695312 -29.109375 L 34.898438 -30.132812 L 34.796875 -31.671875 L 34.898438 -34.335938 L 34.285156 -35.257812 L 33.15625 -35.769531 L 32.132812 -35.875 L 31.160156 -35.875 L 30.03125 -35.769531 L 28.953125 -35.925781 L 28.03125 -35.820312 L 27.007812 -35.875 L 25.777344 -35.359375 L 25.265625 -34.285156 L 25.214844 -24.957031 L 25.417969 -23.882812 L 25.417969 -22.90625 L 25.214844 -21.832031 L 25.265625 -19.78125 L 25.007812 -18.960938 L 24.292969 -19.167969 L 22.035156 -21.472656 L 21.269531 -22.085938 L 19.472656 -23.933594 L 18.652344 -24.546875 L 18.089844 -25.265625 L 17.015625 -26.390625 L 15.425781 -27.726562 L 14.863281 -28.492188 L 13.886719 -29.160156 L 13.375 -29.929688 L 12.503906 -30.542969 L 11.839844 -31.414062 L 9.070312 -34.234375 L 7.019531 -35.617188 L 5.636719 -36.027344 L 4.40625 -35.410156 L 3.742188 -34.4375 L 3.84375 -27.261719 L 3.742188 -26.238281 L 3.894531 -24.136719 L 3.792969 -23.214844 L 3.84375 -22.140625 L 3.691406 -21.0625 L 3.894531 -13.734375 L 3.792969 -12.8125 L 3.792969 -11.839844 L 3.691406 -10.710938 L 3.691406 -9.738281 L 3.84375 -8.660156 L 3.792969 -6.558594 L 3.894531 -5.535156 L 3.742188 -3.585938 L 3.894531 -2.5625 L 3.894531 -1.589844 L 4.355469 -0.460938 L 5.328125 0.101562 L 7.070312 0 L 9.632812 0.152344 L 10.710938 0 L 11.890625 0.101562 L 12.914062 -0.410156 L 13.375 -1.433594 L 13.222656 -2.460938 L 13.375 -15.015625 L 13.171875 -16.089844 L 13.683594 -16.707031 L 14.347656 -16.554688 L 21.675781 -9.378906 L 22.496094 -8.710938 L 27.46875 -3.742188 L 28.136719 -2.921875 L 28.953125 -2.253906 L 29.570312 -1.484375 Z M 30.234375 -0.820312 "/></g></g></g><g fill="#000000" fill-opacity="1"><g transform="translate(880.39167, 394.976367)"><g><path d="M 3.84375 -1.589844 L 4.457031 -0.460938 L 5.277344 0 L 6.457031 0 L 7.535156 0.152344 L 8.558594 0.152344 L 9.632812 0 L 18.859375 -0.0507812 L 22.140625 -0.511719 L 25.109375 -1.433594 L 29.46875 -4.355469 L 31.515625 -6.714844 L 33.105469 -9.277344 L 33.363281 -10.25 L 33.875 -11.222656 L 34.078125 -12.25 L 34.4375 -13.171875 L 34.59375 -14.246094 L 34.847656 -15.324219 L 34.796875 -16.195312 L 35.003906 -19.472656 L 34.234375 -22.394531 L 34.128906 -23.472656 L 33.875 -24.394531 L 33.105469 -26.445312 L 31.925781 -28.1875 L 31.515625 -29.058594 L 30.183594 -30.644531 L 29.3125 -31.3125 L 27.878906 -32.695312 L 25.984375 -33.875 L 24.957031 -34.386719 L 22.140625 -35.308594 L 20.039062 -35.71875 L 12.761719 -35.769531 L 11.734375 -35.875 L 8.457031 -35.769531 L 7.429688 -35.875 L 6.507812 -35.820312 L 5.433594 -35.875 L 4.511719 -35.308594 L 3.742188 -34.335938 L 3.742188 -32.234375 L 3.84375 -31.210938 L 3.792969 -30.183594 L 3.894531 -28.238281 L 3.742188 -27.109375 L 3.894531 -26.085938 L 3.742188 -25.058594 L 3.945312 -20.960938 L 3.792969 -19.011719 L 3.945312 -16.808594 L 3.792969 -15.835938 L 3.945312 -14.757812 L 3.792969 -12.761719 L 3.894531 -8.660156 L 3.792969 -7.636719 L 3.945312 -3.535156 Z M 14.707031 -8.25 L 13.476562 -8.710938 L 13.015625 -9.839844 L 13.121094 -10.863281 L 12.914062 -11.785156 L 13.066406 -12.8125 L 13.066406 -25.984375 L 13.683594 -26.90625 L 15.167969 -27.46875 L 16.246094 -27.417969 L 17.320312 -27.46875 L 18.859375 -27.367188 L 20.910156 -26.75 L 22.652344 -25.625 L 23.933594 -24.1875 L 24.496094 -23.214844 L 25.164062 -22.394531 L 25.777344 -19.371094 L 25.929688 -17.78125 L 25.675781 -15.273438 L 25.367188 -14.296875 L 24.597656 -12.453125 L 23.933594 -11.53125 L 23.265625 -10.8125 L 22.652344 -9.992188 L 21.832031 -9.480469 L 20.804688 -8.96875 L 18.960938 -8.457031 Z M 14.707031 -8.25 "/></g></g></g><g fill="#000000" fill-opacity="1"><g transform="translate(917.647589, 394.976367)"><g><path d="M 19.167969 0.613281 L 22.035156 0.5625 L 25.109375 0.152344 L 28.953125 -1.128906 L 30.644531 -2.050781 L 31.414062 -2.664062 L 32.386719 -3.125 L 33.824219 -4.355469 L 34.488281 -5.277344 L 35.207031 -5.996094 L 37.460938 -9.429688 L 38.230469 -11.375 L 38.640625 -13.324219 L 38.691406 -14.246094 L 38.949219 -15.273438 L 39 -16.347656 L 39.203125 -17.835938 L 39.050781 -20.398438 L 38.691406 -22.496094 L 37.410156 -26.339844 L 36.4375 -28.238281 L 35.308594 -29.773438 L 33.875 -31.363281 L 32.386719 -32.644531 L 31.210938 -33.464844 L 29.671875 -34.128906 L 28.902344 -34.695312 L 24.957031 -35.925781 L 21.984375 -36.4375 L 20.601562 -36.488281 L 15.167969 -35.71875 L 11.324219 -34.285156 L 10.558594 -33.722656 L 9.632812 -33.257812 L 7.890625 -31.976562 L 5.382812 -29.058594 L 3.792969 -26.339844 L 3.023438 -24.394531 L 2.152344 -20.449219 L 2 -16.296875 L 2.152344 -15.21875 L 2.410156 -14.296875 L 2.511719 -13.324219 L 2.972656 -11.375 L 5.328125 -6.714844 L 5.945312 -6.097656 L 6.609375 -5.277344 L 7.378906 -4.5625 L 7.945312 -3.894531 L 9.632812 -2.5625 L 13.632812 -0.511719 L 15.117188 0 L 16.246094 0.101562 L 18.089844 0.511719 Z M 22.035156 -8.457031 L 19.21875 -8.457031 L 18.089844 -8.609375 L 16.246094 -9.378906 L 15.425781 -9.839844 L 14.042969 -10.96875 L 13.375 -11.683594 L 12.65625 -12.65625 L 12.402344 -13.476562 L 11.941406 -14.402344 L 11.53125 -16.296875 L 11.53125 -19.421875 L 11.785156 -20.34375 L 11.941406 -21.320312 L 12.351562 -22.242188 L 12.65625 -23.164062 L 13.886719 -24.804688 L 16.449219 -26.546875 L 17.117188 -26.800781 L 19.117188 -27.316406 L 20.550781 -27.417969 L 23.011719 -27.109375 L 23.933594 -26.90625 L 24.855469 -26.496094 L 26.445312 -25.367188 L 28.441406 -23.265625 L 29.058594 -21.320312 L 29.519531 -20.34375 L 29.671875 -19.421875 L 29.570312 -16.296875 L 29.160156 -14.402344 L 28.800781 -13.476562 L 28.238281 -12.554688 L 27.929688 -11.785156 L 27.210938 -10.96875 L 24.753906 -9.277344 L 23.832031 -9.019531 L 23.0625 -8.660156 Z M 22.035156 -8.457031 "/></g></g></g><g clip-path="url(#a941150715)"><path fill="#c7bbff" d="M 423.675781 338.148438 C 406.070312 338.027344 402.929688 335.921875 402.796875 309.851562 C 402.792969 309.191406 402.257812 308.660156 401.605469 308.660156 C 400.953125 308.660156 400.421875 309.195312 400.417969 309.851562 C 400.28125 335.921875 397.140625 338.027344 379.535156 338.148438 C 378.746094 338.152344 378.101562 338.796875 378.101562 339.585938 C 378.101562 340.371094 378.746094 341.015625 379.535156 341.023438 C 397.136719 341.140625 400.28125 343.246094 400.414062 369.316406 C 400.417969 369.976562 400.953125 370.511719 401.605469 370.511719 C 402.257812 370.511719 402.792969 369.976562 402.792969 369.320312 C 402.925781 343.246094 406.070312 341.140625 423.675781 341.023438 C 424.464844 341.019531 425.109375 340.371094 425.109375 339.585938 C 425.109375 338.796875 424.464844 338.152344 423.675781 338.148438 Z M 423.675781 338.148438 " fill-opacity="1" fill-rule="nonzero"/></g><g clip-path="url(#0974e26ea0)"><path fill="#c7bbff" d="M 476.277344 316.542969 C 463.464844 316.457031 460.945312 314.78125 460.847656 295.714844 C 460.847656 295.355469 460.558594 295.0625 460.203125 295.0625 C 459.847656 295.0625 459.558594 295.355469 459.554688 295.714844 C 459.457031 314.78125 456.9375 316.457031 444.128906 316.542969 C 443.671875 316.546875 443.300781 316.917969 443.300781 317.371094 C 443.300781 317.824219 443.671875 318.191406 444.128906 318.195312 C 456.941406 318.28125 459.457031 319.960938 459.554688 339.027344 C 459.558594 339.386719 459.847656 339.675781 460.203125 339.675781 C 460.554688 339.675781 460.847656 339.386719 460.847656 339.027344 C 460.945312 319.960938 463.464844 318.28125 476.277344 318.195312 C 476.730469 318.191406 477.101562 317.824219 477.101562 317.371094 C 477.101562 316.917969 476.730469 316.546875 476.277344 316.542969 Z M 476.277344 316.542969 " fill-opacity="1" fill-rule="nonzero"/></g><path fill="#c7bbff" d="M 442.992188 350.941406 C 442.1875 353.316406 440.8125 355.09375 439.023438 356.054688 C 440.8125 357.019531 442.1875 358.796875 442.992188 361.171875 C 443.800781 358.796875 445.175781 357.019531 446.964844 356.054688 C 445.175781 355.09375 443.800781 353.316406 442.992188 350.941406 Z M 442.992188 350.941406 " fill-opacity="1" fill-rule="nonzero"/><path fill="#c7bbff" d="M 419.574219 312.957031 C 420.378906 310.585938 421.757812 308.808594 423.542969 307.84375 C 421.757812 306.882812 420.378906 305.105469 419.574219 302.730469 C 418.765625 305.105469 417.390625 306.882812 415.601562 307.84375 C 417.390625 308.808594 418.765625 310.585938 419.574219 312.957031 Z M 419.574219 312.957031 " fill-opacity="1" fill-rule="nonzero"/><g clip-path="url(#3f14350e44)"><path fill="#c7bbff" d="M 492.292969 283.953125 C 483.492188 283.894531 481.921875 282.851562 481.855469 269.945312 C 481.851562 269.621094 481.585938 269.355469 481.257812 269.355469 C 480.933594 269.355469 480.667969 269.621094 480.664062 269.945312 C 480.597656 282.851562 479.027344 283.894531 470.226562 283.953125 C 469.828125 283.953125 469.507812 284.273438 469.507812 284.664062 C 469.507812 285.054688 469.828125 285.371094 470.222656 285.375 C 479.027344 285.433594 480.597656 286.476562 480.664062 299.382812 C 480.667969 299.707031 480.933594 299.972656 481.257812 299.972656 C 481.585938 299.972656 481.851562 299.707031 481.855469 299.382812 C 481.921875 286.476562 483.492188 285.433594 492.292969 285.375 C 492.691406 285.371094 493.011719 285.054688 493.011719 284.664062 C 493.011719 284.273438 492.691406 283.953125 492.292969 283.953125 Z M 492.292969 283.953125 " fill-opacity="1" fill-rule="nonzero"/></g><g clip-path="url(#aef2746f09)"><path fill="#c7bbff" d="M 518.59375 273.257812 C 512.1875 273.214844 510.929688 272.386719 510.882812 262.949219 C 510.878906 262.769531 510.734375 262.625 510.558594 262.625 C 510.378906 262.625 510.234375 262.769531 510.234375 262.949219 C 510.1875 272.386719 508.925781 273.214844 502.519531 273.257812 C 502.292969 273.261719 502.109375 273.441406 502.109375 273.667969 C 502.109375 273.890625 502.292969 274.074219 502.519531 274.078125 C 508.925781 274.117188 510.1875 274.949219 510.234375 284.386719 C 510.234375 284.5625 510.382812 284.707031 510.558594 284.707031 C 510.734375 284.707031 510.878906 284.5625 510.882812 284.386719 C 510.929688 274.949219 512.1875 274.117188 518.59375 274.078125 C 518.824219 274.074219 519.007812 273.890625 519.007812 273.667969 C 519.007812 273.441406 518.824219 273.261719 518.59375 273.257812 Z M 518.59375 273.257812 " fill-opacity="1" fill-rule="nonzero"/></g><path fill="#c7bbff" d="M 501.953125 290.285156 C 501.550781 291.460938 500.863281 292.339844 499.96875 292.816406 C 500.863281 293.292969 501.550781 294.171875 501.953125 295.347656 C 502.359375 294.171875 503.046875 293.292969 503.941406 292.816406 C 503.046875 292.339844 502.359375 291.460938 501.953125 290.285156 Z M 501.953125 290.285156 " fill-opacity="1" fill-rule="nonzero"/><path fill="#c7bbff" d="M 490.242188 271.484375 C 490.648438 270.308594 491.335938 269.429688 492.230469 268.953125 C 491.335938 268.476562 490.648438 267.597656 490.242188 266.421875 C 489.839844 267.597656 489.152344 268.476562 488.257812 268.953125 C 489.152344 269.429688 489.839844 270.308594 490.242188 271.484375 Z M 490.242188 271.484375 " fill-opacity="1" fill-rule="nonzero"/></svg>